<?xml version="1.0" standalone="no"?>
<!DOCTYPE svg PUBLIC "-//W3C//DTD SVG 1.0//EN" "http://www.w3.org/TR/2001/REC-SVG-20010904/DTD/svg10.dtd">
<svg xmlns="http://www.w3.org/2000/svg" xmlns:xlink="http://www.w3.org/1999/xlink" id="body_1" width="205" height="154">

<g transform="matrix(0.15147036 0 0 0.15147036 -0 63.594875)">
	<g>
        <path d="M619.5 101.8L619.5 157.6L590.7 157.6L590.7 17L619.5 17L619.5 75.3L675.8 75.3L675.8 17L704.6 17L704.6 157.6L675.8 157.6L675.8 101.8L619.5 101.8L619.5 101.8" stroke="none" fill="#4A154B" fill-rule="nonzero" />
        <path d="M7.8 135.2L29 117C 40.1 125.4 51.8 130.6 65.8 130.6C 79.8 130.6 85.3 125.700005 85.3 117.8L85.3 117.8L85.3 117.4C 85.3 109.8 80.700005 106 58.100002 100.2C 30.900002 93.2 13.300003 85.7 13.300003 58.799995L13.300003 58.799995L13.300003 58.399994C 13.300003 33.799995 33.000004 17.599995 60.700005 17.599995C 88.40001 17.599995 97.200005 23.799995 110.90001 34.799995L110.90001 34.799995L89.40001 53.299995C 79.600006 47.399994 69.80001 43.999996 60.30001 43.999996C 50.80001 43.999996 42.90001 49.199997 42.90001 55.799995L42.90001 55.799995L42.90001 56.199997C 42.90001 65.1 48.70001 68 72.100006 74C 99.50001 81.2 115.00001 91 115.00001 114.6L115.00001 114.6L115.00001 115C 115.00001 141.9 94.50001 157 65.40001 157C 36.30001 157 24.30001 149.8 8.000008 135.3L8.000008 135.3L7.800008 135.3L7.800008 135.2L7.8 135.2z" stroke="none" fill="#4A154B" fill-rule="nonzero" />
        <path d="M225.8 85.7C 222.90001 79.5 219.1 74.1 214.2 69.6C 209.3 65.1 203.8 61.699997 197.4 59.199997C 191 56.699997 184.29999 55.499996 177.09999 55.499996C 169.9 55.499996 163.7 56.699997 157.4 59.199997C 151 61.699997 145.4 65.2 140.59999 69.6C 135.7 74.1 131.9 79.4 128.99998 85.7C 126.09998 91.899994 124.499985 98.799995 124.499985 106.399994L124.499985 106.399994L124.499985 106.799995C 124.499985 114.399994 125.999985 121.299995 128.99998 127.5C 131.89998 133.7 135.69998 139.1 140.59999 143.6C 145.49998 148.1 150.99998 151.5 157.4 154C 163.79999 156.5 170.29999 157.7 177.09999 157.7C 183.9 157.7 190.99998 156.5 197.4 154C 203.79999 151.5 209.4 148 214.2 143.6C 219.09999 139.1 222.9 133.70001 225.8 127.50001C 228.7 121.30001 230 114.40001 230 106.8L230 106.8L230 106.4C 230 98.8 228.6 91.9 225.8 85.7zM198.9 116.6C 197.7 119.7 196 122.4 193.79999 124.799995C 191.69998 127.1 189.19998 128.79999 186.19998 130.2C 183.29999 131.5 180.19998 132.09999 176.69998 132.09999C 173.19998 132.09999 170.29999 131.49998 167.39998 130.2C 164.49997 128.90001 161.99998 127.1 159.79997 124.799995C 157.69997 122.49999 155.89998 119.7 154.69997 116.6C 153.49995 113.5 152.89996 110.2 152.89996 106.6C 152.89996 103 153.49997 99.6 154.69997 96.6C 155.89996 93.5 157.59996 90.799995 159.79997 88.4C 161.89998 86.1 164.39998 84.4 167.39998 83C 170.29997 81.7 173.39998 81.1 176.69998 81.1C 179.99998 81.1 183.29999 81.7 186.19998 83C 189.09998 84.3 191.59998 86.1 193.79999 88.4C 195.9 90.700005 197.69998 93.5 198.9 96.6C 200.1 99.7 200.7 103 200.7 106.6C 200.7 110.2 200.09999 113.5 198.9 116.6z" stroke="none" fill="#4A154B" fill-rule="nonzero" />
        <path d="M818.8 85.7C 815.89996 79.5 812.1 74.1 807.2 69.6C 802.3 65.1 796.8 61.699997 790.4 59.199997C 784 56.699997 777.30005 55.499996 770.10004 55.499996C 762.9 55.499996 756.7 56.699997 750.4 59.199997C 744 61.699997 738.4 65.2 733.60004 69.6C 728.7 74.1 724.9 79.4 722.00006 85.7C 719.1001 91.99999 717.50006 98.799995 717.50006 106.399994L717.50006 106.399994L717.50006 106.799995C 717.50006 114.399994 719.00006 121.299995 722.00006 127.5C 724.9001 133.7 728.7001 139.1 733.60004 143.6C 738.5 148.1 744.00006 151.5 750.4 154C 756.8 156.5 763.4 157.7 770.10004 157.7C 776.80005 157.7 784.00006 156.5 790.4 154C 796.80005 151.5 802.4 148 807.2 143.6C 812.10004 139.1 815.9 133.70001 818.8 127.50001C 821.7 121.30001 823 114.40001 823 106.8L823 106.8L823 106.4C 823 98.8 821.7 91.9 818.8 85.7zM792 116.6C 790.8 119.7 789.1 122.4 787 124.799995C 784.9 127.1 782.4 128.79999 779.4 130.2C 776.5 131.5 773.4 132.09999 769.9 132.09999C 766.4 132.09999 763.5 131.49998 760.60004 130.2C 757.7001 128.90001 755.2 127.1 753.00006 124.799995C 750.9001 122.49999 749.10004 119.7 748.00006 116.6C 746.9001 113.5 746.2001 110.2 746.2001 106.6C 746.2001 103 746.80005 99.6 748.00006 96.6C 749.2001 93.5 750.9001 90.799995 753.00006 88.4C 755.10004 86.1 757.60004 84.4 760.60004 83C 763.50006 81.7 766.60004 81.1 769.9 81.1C 773.2 81.1 776.5 81.7 779.4 83C 782.30005 84.3 784.80005 86.1 787 88.4C 789.1 90.700005 790.9 93.5 792 96.6C 793.1 99.7 793.8 103 793.8 106.6C 793.8 110.2 793.2 113.5 792 116.6z" stroke="none" fill="#4A154B" fill-rule="nonzero" />
        <path d="M570.8 17L542 17L542 62C 540.7 61.4 539.5 60.8 538.1 60.3C 531.69995 57.8 525 56.6 517.8 56.6C 510.59998 56.6 504.4 57.8 498.09998 60.3C 491.69998 62.8 486.09998 66.3 481.3 70.7C 476.4 75.2 472.59998 80.5 469.69998 86.799995C 466.8 92.99999 465.19998 99.899994 465.19998 107.5L465.19998 107.5L465.19998 107.9C 465.19998 115.5 466.69998 122.4 469.69998 128.6C 472.59998 134.8 476.4 140.20001 481.3 144.70001C 486.19998 149.20001 491.69998 152.6 498.09998 155.1C 504.49997 157.6 511.09998 158.8 517.8 158.8C 524.5 158.8 531.7 157.6 538.1 155.1C 544.5 152.6 550.1 149.1 554.89996 144.70001C 559.8 140.20001 563.6 134.80002 566.49994 128.6C 569.39996 122.40001 570.69995 115.50001 570.69995 107.90001L570.69995 107.90001L570.69995 106.00001L570.69995 17L570.7999 17L570.8 17zM539.7 117.7C 538.5 120.799995 536.8 123.5 534.7 125.899994C 532.60004 128.2 530.10004 129.9 527.10004 131.29999C 524.2 132.59999 521.10004 133.19998 517.60004 133.19998C 514.10004 133.19998 511.20004 132.59998 508.30005 131.29999C 505.40005 130 502.90005 128.19998 500.70004 125.89999C 498.60004 123.59998 496.80005 120.79999 495.70004 117.69999C 494.50003 114.59999 493.90005 111.29999 493.90005 107.69999C 493.90005 104.09999 494.50006 100.69999 495.70004 97.69999C 496.90005 94.59999 498.60004 91.89999 500.70004 89.49999C 502.80005 87.19999 505.30005 85.49999 508.30005 84.09999C 511.20004 82.79999 514.30005 82.19999 517.60004 82.19999C 520.9 82.19999 524.2 82.79999 527.10004 84.09999C 530.00006 85.399994 532.50006 87.19999 534.7 89.49999C 536.8 91.799995 538.60004 94.59999 539.7 97.69999C 540.8 100.79999 541.5 104.09999 541.5 107.69999C 541.5 111.29999 540.9 114.59999 539.7 117.69999z" stroke="none" fill="#4A154B" fill-rule="nonzero" />
        <path d="M1164.5 17L1135.7 17L1135.7 62C 1134.3999 61.4 1133.2 60.8 1131.7999 60.3C 1125.3999 57.8 1118.7 56.6 1111.4999 56.6C 1104.2998 56.6 1098.0999 57.8 1091.7999 60.3C 1085.4999 62.8 1079.7999 66.3 1074.9999 70.7C 1070.1998 75.09999 1066.2999 80.5 1063.3999 86.799995C 1060.4999 92.99999 1058.8999 99.899994 1058.8999 107.5L1058.8999 107.5L1058.8999 107.9C 1058.8999 115.5 1060.3999 122.4 1063.3999 128.6C 1066.2999 134.8 1070.0999 140.20001 1074.9999 144.70001C 1079.8999 149.20001 1085.3999 152.6 1091.7999 155.1C 1098.2 157.6 1104.7 158.8 1111.4999 158.8C 1118.2998 158.8 1125.3999 157.6 1131.7999 155.1C 1138.2 152.6 1143.7999 149.1 1148.6 144.70001C 1153.5 140.20001 1157.2999 134.80002 1160.2 128.6C 1163.1 122.40001 1164.3999 115.50001 1164.3999 107.90001L1164.3999 107.90001L1164.3999 106.00001L1164.3999 17L1164.4999 17L1164.5 17zM1133.3 117.7C 1132.1001 120.799995 1130.4 123.5 1128.2001 125.899994C 1126.1001 128.2 1123.6001 129.9 1120.6001 131.29999C 1117.7001 132.59999 1114.6001 133.19998 1111.1001 133.19998C 1107.6001 133.19998 1104.7001 132.59998 1101.8 131.29999C 1098.9 130 1096.4 128.19998 1094.2001 125.89999C 1092.1001 123.59998 1090.3 120.79999 1089.1001 117.69999C 1087.9001 114.59999 1087.3 111.29999 1087.3 107.69999C 1087.3 104.09999 1087.9 100.69999 1089.1001 97.69999C 1090.3 94.59999 1092.0001 91.89999 1094.2001 89.49999C 1096.3 87.19999 1098.8 85.49999 1101.8 84.09999C 1104.7001 82.79999 1107.8 82.19999 1111.1001 82.19999C 1114.4001 82.19999 1117.7001 82.79999 1120.6001 84.09999C 1123.5001 85.399994 1126.0001 87.19999 1128.2001 89.49999C 1130.3 91.799995 1132.1001 94.59999 1133.3 97.69999C 1134.5 100.79999 1135.1001 104.09999 1135.1001 107.69999C 1135.1001 111.29999 1134.5001 114.59999 1133.3 117.69999z" stroke="none" fill="#4A154B" fill-rule="nonzero" />
        <path d="M313.1 58.6L313.1 110.8C 313.1 114.700005 312.6 118.3 311.5 121.5C 310.5 124.4 309.1 126.8 307.3 128.8C 305.59998 130.7 303.4 132.1 300.69998 133.1C 298.3 134 295.49997 134.5 292.3 134.5C 289.1 134.5 286.3 134 283.69998 133.1C 280.9 132 278.59998 130.6 276.49997 128.70001C 274.29996 126.60001 272.69998 124.20001 271.59998 121.40001C 270.39996 118.30001 269.8 114.90001 269.8 110.80001L269.8 110.80001L269.8 58.60001L242.9 58.60001L242.9 112.500015C 242.9 120.000015 244.09999 126.80002 246.59999 133.00002C 249.09999 139.10002 252.49998 144.10002 256.9 148.00002C 261.4 152.00002 266.69998 155.00002 272.6 157.10002C 278.6 159.20003 285.1 160.20003 292.5 160.20003C 299.9 160.20003 306.1 159.20003 311.8 157.10002C 317.8 154.90002 322.69998 152.00002 326.9 148.20003C 331.19998 144.20003 334.5 139.30003 336.69998 133.30003C 338.99997 127.30003 340.09998 120.60004 340.09998 112.90003L340.09998 112.90003L340.09998 58.70003L313.09998 58.70003L313.09998 58.600033L313.1 58.6z" stroke="none" fill="#4A154B" fill-rule="nonzero" />
        <path d="M383.5 153.7L383.5 101.5C 383.5 97.6 384 94 385.1 90.8C 386.1 87.9 387.5 85.5 389.30002 83.5C 391.00003 81.6 393.2 80.2 395.90002 79.2C 398.30002 78.299995 401.10004 77.799995 404.30002 77.799995C 407.5 77.799995 410.30002 78.299995 412.90002 79.2C 415.7 80.299995 418.00003 81.7 420.10004 83.6C 422.30005 85.7 423.90002 88.1 425.00003 90.9C 426.20004 94 426.80002 97.4 426.80002 101.5L426.80002 101.5L426.80002 153.7L453.7 153.7L453.7 99.7C 453.7 92.2 452.5 85.399994 450 79.2C 447.5 73.1 444.1 68.1 439.7 64.2C 435.2 60.199997 429.90002 57.199997 424 55.1C 418 53.1 411.5 52 404.1 52C 396.7 52 390.5 53 384.80002 55.1C 378.80002 57.3 373.90002 60.199997 369.7 64C 365.40002 68 362.1 72.9 359.90002 78.9C 357.60004 84.9 356.50003 91.6 356.50003 99.3L356.50003 99.3L356.50003 153.5L383.50003 153.5L383.50003 153.7L383.5 153.7z" stroke="none" fill="#4A154B" fill-rule="nonzero" />
        <path d="M906.1 58.6L906.1 110.8C 906.1 114.700005 905.6 118.3 904.5 121.5C 903.5 124.4 902.2 126.8 900.3 128.8C 898.6 130.7 896.39996 132.1 893.7 133.1C 891.3 134 888.5 134.5 885.3 134.5C 882.1 134.5 879.3 134 876.7 133.1C 873.9 132 871.5 130.6 869.5 128.70001C 867.3 126.60001 865.7 124.20001 864.6 121.40001C 863.39996 118.30001 862.8 114.90001 862.8 110.80001L862.8 110.80001L862.8 58.60001L836 58.60001L836 112.500015C 836 120.000015 837.2 126.80002 839.7 133.00002C 842.2 139.10002 845.60004 144.10002 850 148.00002C 854.5 152.00002 859.8 155.00002 865.7 157.10002C 871.7 159.20003 878.2 160.20003 885.60004 160.20003C 893.00006 160.20003 899.2 159.20003 904.9 157.10002C 910.9 154.90002 915.80005 152.00002 920 148.20003C 924.3 144.20003 927.6 139.30003 929.8 133.30003C 932.1 127.30003 933.2 120.60004 933.2 112.90003L933.2 112.90003L933.2 58.70003L906.10004 58.70003L906.10004 58.600033L906.1 58.6z" stroke="none" fill="#4A154B" fill-rule="nonzero" />
        <path d="M976.5 153.7L976.5 101.5C 976.5 97.6 977 94 978.1 90.8C 979.1 87.9 980.39996 85.5 982.3 83.5C 984 81.6 986.2 80.2 988.89996 79.2C 991.3 78.299995 994.1 77.799995 997.3 77.799995C 1000.5 77.799995 1003.3 78.299995 1005.89996 79.2C 1008.69995 80.299995 1011.1 81.7 1013.1 83.6C 1015.3 85.7 1016.89996 88.1 1018 90.9C 1019.2 94 1019.8 97.4 1019.8 101.5L1019.8 101.5L1019.8 153.7L1046.6 153.7L1046.6 99.7C 1046.6 92.2 1045.4 85.399994 1042.9 79.2C 1040.4 73.1 1037 68.1 1032.6 64.2C 1028.1 60.199997 1022.8 57.199997 1016.89996 55.1C 1010.89996 53.1 1004.39996 52 996.99994 52C 989.5999 52 983.39996 53 977.69995 55.1C 971.69995 57.3 966.7999 60.199997 962.6 64C 958.3 68 955 72.9 952.8 78.9C 950.5 84.9 949.39996 91.6 949.39996 99.3L949.39996 99.3L949.39996 153.5L976.39996 153.5L976.39996 153.7L976.49994 153.7L976.5 153.7z" stroke="none" fill="#4A154B" fill-rule="nonzero" />
	</g>
	<g>
        <path d="M1239 25.4L1251.1 25.4L1251.1 45.1L1246.9 45.1L1207.2001 156.9L1190.0001 156.9L1238.9001 25.399994L1239.0001 25.399994L1239 25.4zM1217.9 105.3L1276.2001 105.3L1281.7001 119.200005L1212.4 119.200005L1217.9 105.3zM1247.3 45.1L1247.3 25.399998L1255.2001 25.399998L1304.0001 156.9L1286.8002 156.9L1247.2002 45.09999L1247.3002 45.09999z" stroke="none" fill="#4A154B" fill-rule="nonzero" />
        <path d="M1319.1 25.4L1335.5 25.4L1335.5 156.9L1319.1 156.9L1319.1 25.4z" stroke="none" fill="#4A154B" fill-rule="nonzero" />
	</g>
</g>
</svg>
