<svg width="144" height="42" viewBox="0 0 144 42" fill="none" xmlns="http://www.w3.org/2000/svg">
<g clip-path="url(#clip0_537_626)">
<path d="M128.574 22.7372H134.206C134.206 23.3384 134.409 23.8559 134.812 24.2846C135.215 24.7133 135.708 24.9301 136.287 24.9301C136.756 24.9301 137.169 24.7872 137.529 24.4965C137.889 24.2057 138.136 23.8411 138.264 23.3976C138.33 23.2399 138.363 23.028 138.363 22.7668C138.363 22.1656 138.159 21.6088 137.756 21.1012C137.353 20.5887 136.86 20.3374 136.282 20.3374H134.675V15.3159H136.282C136.86 15.3159 137.353 15.0597 137.756 14.5521C138.159 14.0396 138.363 13.4778 138.363 12.8668C138.363 12.6401 138.33 12.4282 138.264 12.236C138.131 11.7925 137.889 11.4278 137.529 11.1371C137.169 10.8464 136.751 10.7034 136.287 10.7034C135.708 10.7034 135.215 10.9153 134.812 11.3342C134.409 11.7531 134.206 12.2656 134.206 12.8668H128.574C128.574 11.7777 128.777 10.7478 129.18 9.76715C129.583 8.79144 130.138 7.93892 130.844 7.20467C131.546 6.47043 132.361 5.8988 133.291 5.475C134.22 5.05614 135.215 4.84424 136.287 4.84424C137.159 4.84424 137.989 4.98222 138.766 5.26311C139.548 5.53906 140.264 5.93329 140.909 6.43593C141.559 6.93857 142.118 7.53977 142.587 8.22967C143.057 8.91956 143.417 9.67845 143.668 10.4915C143.886 11.2061 143.995 11.9945 143.995 12.8569C143.995 13.808 143.844 14.7049 143.545 15.5475C143.246 16.3852 142.824 17.1392 142.293 17.8094C142.829 18.4796 143.246 19.2286 143.545 20.0565C143.844 20.8844 143.995 21.7763 143.995 22.7274C143.995 23.6144 143.886 24.4127 143.668 25.1272C143.417 25.9453 143.057 26.7041 142.587 27.399C142.118 28.0987 141.559 28.695 140.909 29.1927C140.26 29.6904 139.544 30.0797 138.766 30.3606C137.984 30.6366 137.159 30.7795 136.287 30.7795C135.215 30.7795 134.22 30.5676 133.291 30.1487C132.361 29.7298 131.546 29.1533 130.844 28.419C130.143 27.6848 129.588 26.8323 129.18 25.8566C128.777 24.8808 128.574 23.8361 128.574 22.7274V22.7372Z" fill="#62BC56"/>
<path d="M139.558 37.6437C138.875 37.0918 138.14 37.4368 137.415 37.7374C136.519 38.1119 135.614 38.4765 134.67 38.6244C133.471 38.8116 132.248 38.7771 131.067 38.5406C129.683 38.2597 128.389 37.6979 127.199 36.9341C129.28 35.2784 131.02 33.1545 132.324 30.7152C131.541 30.2865 130.825 29.7493 130.2 29.0989C130.162 29.0594 130.133 29.02 130.1 28.9806C130.024 29.1383 129.948 29.296 129.863 29.4487C129.849 29.4389 129.835 29.434 129.825 29.4241C128.578 31.7155 126.876 33.6571 124.871 35.1059C124.16 34.4505 123.477 33.736 122.913 32.9376C122.268 32.026 121.529 31.1981 120.723 30.4639C119.102 28.9954 117.196 27.9014 115.148 27.2854C113.038 26.6497 110.729 26.4132 108.525 26.8173C107.345 27.0341 106.776 28.5716 107.392 29.6311C107.629 30.0401 108.037 30.3259 108.478 30.3949C108.956 30.4688 109.435 30.3013 109.905 30.2076C112.081 29.769 114.503 30.4343 116.385 31.5234C118.59 32.7997 120.22 34.8644 121.984 36.7518C120.225 37.5107 118.324 37.9345 116.338 37.9345C107.738 37.9345 100.57 30.1436 100.57 20.4012C100.57 10.6589 107.733 2.92217 116.333 2.92217C121.041 2.92217 125.312 5.23332 128.213 8.9292C128.223 8.91935 128.232 8.90949 128.242 8.89964C128.313 8.98834 128.379 9.08197 128.45 9.1756C128.858 8.25409 129.398 7.42129 130.062 6.70182C128.313 4.58778 126.17 2.87289 123.748 1.70992V1.74441C121.486 0.645502 118.983 0.0196663 116.338 0.00488281C106.027 0.0640169 97.8157 9.2298 97.8157 20.4061C97.8157 29.7148 103.538 37.6881 111.431 40.0732C111.431 40.0732 113.398 40.837 116.12 40.9651C116.129 40.9651 116.139 40.97 116.143 40.975H116.177C118.561 41.0735 121.51 40.6941 124.236 38.9003C124.307 38.9545 124.373 39.0137 124.444 39.0679C128.536 42.2266 133.518 42.7687 138.387 41.039C138.633 40.9503 138.88 40.8616 139.122 40.7631C140.288 40.2998 140.492 38.3977 139.567 37.6487L139.558 37.6437Z" fill="#134A99"/>
<path d="M24.6751 22.0028C22.1388 20.2239 18.7207 19.0806 14.8618 18.3365H14.7527C11.2778 17.6466 8.41436 16.6758 6.48488 15.3009C4.5554 13.9261 3.67362 12.4379 3.61673 10.4322C3.61673 8.36748 4.72133 6.42098 6.65081 4.93277C8.58029 3.49877 11.3915 2.52798 14.5347 2.52798C18.7776 2.52798 22.0867 4.70609 25.1207 6.77085C25.6707 7.17001 26.4434 7.00246 26.7753 6.42591C27.1593 5.79514 26.9981 5.05104 26.4434 4.65188C23.4046 2.57726 19.6025 0 14.5299 0C10.8938 0 7.63688 1.08905 5.21436 2.92221C2.78711 4.75537 1.18948 7.39176 1.18948 10.4273C1.18948 13.4629 2.78711 15.8134 5.15748 17.4199C7.52785 19.0806 10.671 20.1154 14.255 20.8004H14.364C18.1139 21.5445 21.2001 22.6336 23.2955 24.0676C25.391 25.5558 26.4387 27.2756 26.4387 29.5671C26.4387 31.8585 25.2819 33.9233 23.1296 35.5248C21.0342 37.1313 18.0049 38.1612 14.639 38.1612C9.62325 38.2203 4.82562 35.4115 1.95748 33.0018C1.4597 32.5435 0.691698 32.6026 0.250809 33.1742C-0.133191 33.6917 -0.0810428 34.49 0.416735 34.9483C3.61199 37.5847 8.74148 40.6793 14.639 40.7385C18.4979 40.7385 21.9729 39.5361 24.5613 37.5846C27.1545 35.6382 28.9181 32.7701 28.9181 29.5621C28.9181 26.3541 27.2067 23.7177 24.6751 21.9979V22.0028Z" fill="#134A99"/>
<path d="M58.9795 1.08883C58.3727 0.571408 57.4909 0.689676 57.1069 1.31551L44.9801 18.563L32.9054 1.31551C32.5214 0.684748 31.6396 0.571408 31.0328 1.08883C30.4829 1.48799 30.3691 2.40457 30.7579 3.03533L43.7143 21.431V39.3092C43.7143 40.0533 44.3211 40.684 45.037 40.684C45.8097 40.684 46.3596 40.0533 46.3596 39.3092V21.3176L59.2592 3.03533C59.7001 2.40457 59.591 1.48799 58.9842 1.08883H58.9795Z" fill="#134A99"/>
<path d="M89.7517 0.975591C89.0359 0.975591 88.4291 1.60635 88.4291 2.35046V35.0122L65.0572 1.31561C64.6732 0.684848 63.7914 0.571508 63.1846 0.970663C62.6869 1.36982 62.5209 1.94638 62.6869 2.51801V39.3093C62.6869 40.0534 63.2937 40.6841 64.0095 40.6841C64.7254 40.6841 65.3322 40.0534 65.3322 39.3093V6.47506L88.486 39.94C88.5429 40.0534 88.6519 40.1125 88.7088 40.1716C88.9837 40.5166 89.3156 40.6891 89.7565 40.6891C90.5292 40.6891 91.136 40.0583 91.136 39.3142V2.35046C91.136 1.60635 90.5292 0.975591 89.7565 0.975591H89.7517Z" fill="#134A99"/>
</g>
<defs>
<clipPath id="clip0_537_626">
<rect width="144" height="42" fill="white"/>
</clipPath>
</defs>
</svg>
